<svg width="63" height="11" viewBox="0 0 63 11" fill="none" xmlns="http://www.w3.org/2000/svg">
<path d="M0.596591 10V3.45455H2.82955V4.69886H2.89773C3.03409 4.28977 3.26705 3.96591 3.59659 3.72727C3.92614 3.48864 4.31818 3.36932 4.77273 3.36932C5.23295 3.36932 5.62926 3.49148 5.96165 3.7358C6.29403 3.97727 6.49432 4.2983 6.5625 4.69886H6.63068C6.74148 4.2983 6.97727 3.97727 7.33807 3.7358C7.69886 3.49148 8.12216 3.36932 8.60795 3.36932C9.2358 3.36932 9.74432 3.57102 10.1335 3.97443C10.5256 4.37784 10.7216 4.91477 10.7216 5.58523V10H8.36932V6.18182C8.36932 5.89489 8.29688 5.67045 8.15199 5.50852C8.0071 5.34375 7.8125 5.26136 7.56818 5.26136C7.3267 5.26136 7.13494 5.34375 6.9929 5.50852C6.85369 5.67045 6.78409 5.89489 6.78409 6.18182V10H4.53409V6.18182C4.53409 5.89489 4.46165 5.67045 4.31676 5.50852C4.17188 5.34375 3.97727 5.26136 3.73295 5.26136C3.57102 5.26136 3.43182 5.2983 3.31534 5.37216C3.19886 5.44602 3.10795 5.55256 3.04261 5.69176C2.98011 5.82812 2.94886 5.99148 2.94886 6.18182V10H0.596591ZM15.0181 10.1193C14.3192 10.1193 13.717 9.9858 13.2113 9.71875C12.7085 9.44886 12.3207 9.0625 12.0479 8.55966C11.7781 8.05398 11.6431 7.44886 11.6431 6.74432C11.6431 6.06818 11.7795 5.47727 12.0522 4.97159C12.3249 4.46591 12.7099 4.07244 13.207 3.79119C13.7042 3.50994 14.2908 3.36932 14.967 3.36932C15.4613 3.36932 15.9087 3.44602 16.3093 3.59943C16.7099 3.75284 17.0522 3.97585 17.3363 4.26847C17.6204 4.55824 17.8391 4.91051 17.9925 5.32528C18.146 5.74006 18.2227 6.20739 18.2227 6.72727V7.27273H12.3761V5.97727H16.0579C16.055 5.78977 16.0067 5.625 15.913 5.48295C15.8221 5.33807 15.6985 5.22585 15.5423 5.14631C15.3888 5.06392 15.2141 5.02273 15.0181 5.02273C14.8278 5.02273 14.6531 5.06392 14.494 5.14631C14.3349 5.22585 14.207 5.33665 14.1104 5.47869C14.0167 5.62074 13.967 5.78693 13.9613 5.97727V7.375C13.9613 7.58523 14.0053 7.77273 14.0934 7.9375C14.1815 8.10227 14.3079 8.23153 14.4727 8.32528C14.6374 8.41903 14.8363 8.46591 15.0692 8.46591C15.2312 8.46591 15.3789 8.44318 15.5124 8.39773C15.6488 8.35227 15.7653 8.28693 15.8619 8.2017C15.9585 8.11364 16.0295 8.00852 16.0749 7.88636H18.2227C18.1488 8.34091 17.9741 8.7358 17.6985 9.07102C17.4229 9.40341 17.0579 9.66193 16.6033 9.84659C16.1516 10.0284 15.6232 10.1193 15.0181 10.1193ZM23.0859 3.45455V5.15909H18.7734V3.45455H23.0859ZM19.6087 1.88636H21.9609V7.89489C21.9609 7.9858 21.9766 8.0625 22.0078 8.125C22.0391 8.18466 22.0874 8.23011 22.1527 8.26136C22.218 8.28977 22.3018 8.30398 22.4041 8.30398C22.4751 8.30398 22.5575 8.29545 22.6513 8.27841C22.7479 8.26136 22.8189 8.24716 22.8643 8.2358L23.2053 9.8892C23.1001 9.92045 22.9496 9.95881 22.7536 10.0043C22.5604 10.0497 22.3303 10.0795 22.0632 10.0938C21.5234 10.1222 21.0703 10.0668 20.7038 9.92756C20.3374 9.78551 20.0618 9.5625 19.8771 9.25852C19.6925 8.95455 19.603 8.57386 19.6087 8.11648V1.88636ZM25.8697 10.1023C25.4521 10.1023 25.0827 10.0341 24.7617 9.89773C24.4435 9.75852 24.1935 9.5483 24.0117 9.26705C23.8299 8.9858 23.739 8.62784 23.739 8.19318C23.739 7.83523 23.8001 7.52983 23.9222 7.27699C24.0444 7.02131 24.2148 6.8125 24.4336 6.65057C24.6523 6.48864 24.9066 6.36506 25.1964 6.27983C25.489 6.1946 25.8043 6.1392 26.1424 6.11364C26.5089 6.08523 26.8029 6.05114 27.0245 6.01136C27.2489 5.96875 27.4109 5.91051 27.5103 5.83665C27.6097 5.75994 27.6594 5.65909 27.6594 5.53409V5.51705C27.6594 5.34659 27.5941 5.21591 27.4634 5.125C27.3327 5.03409 27.1651 4.98864 26.9606 4.98864C26.7362 4.98864 26.5529 5.03835 26.4109 5.13778C26.2717 5.23437 26.1879 5.38352 26.1594 5.58523H23.9947C24.0231 5.1875 24.1495 4.82102 24.3739 4.4858C24.6012 4.14773 24.9322 3.87784 25.3668 3.67614C25.8015 3.47159 26.3441 3.36932 26.9947 3.36932C27.4634 3.36932 27.8839 3.42472 28.256 3.53551C28.6282 3.64347 28.945 3.79545 29.2063 3.99148C29.4677 4.18466 29.6665 4.41193 29.8029 4.6733C29.9421 4.93182 30.0117 5.21307 30.0117 5.51705V10H27.8129V9.07955H27.7617C27.631 9.32386 27.4719 9.52131 27.2844 9.67188C27.0998 9.82244 26.8881 9.93182 26.6495 10C26.4137 10.0682 26.1538 10.1023 25.8697 10.1023ZM26.6367 8.61932C26.8157 8.61932 26.9833 8.58239 27.1396 8.50852C27.2987 8.43466 27.4279 8.32812 27.5273 8.18892C27.6268 8.04972 27.6765 7.88068 27.6765 7.68182V7.13636C27.614 7.16193 27.5472 7.18608 27.4762 7.20881C27.408 7.23153 27.3342 7.25284 27.2546 7.27273C27.1779 7.29261 27.0955 7.31108 27.0075 7.32812C26.9222 7.34517 26.8327 7.3608 26.739 7.375C26.5572 7.40341 26.408 7.45028 26.2915 7.51562C26.1779 7.57812 26.0927 7.65625 26.0359 7.75C25.9819 7.84091 25.9549 7.94318 25.9549 8.05682C25.9549 8.23864 26.0188 8.37784 26.1467 8.47443C26.2745 8.57102 26.4379 8.61932 26.6367 8.61932Z" fill="#0C1F63"/>
<path d="M37.7322 3.45455L35.5334 10H32.8061L30.6072 3.45455H33.0788L34.1357 7.78409H34.2038L35.2607 3.45455H37.7322ZM41.3555 10.1193C40.6452 10.1193 40.0373 9.97869 39.5316 9.69744C39.0259 9.41335 38.6381 9.01847 38.3683 8.51278C38.0984 8.00426 37.9634 7.41477 37.9634 6.74432C37.9634 6.07386 38.0984 5.4858 38.3683 4.98011C38.6381 4.47159 39.0259 4.0767 39.5316 3.79545C40.0373 3.51136 40.6452 3.36932 41.3555 3.36932C42.0657 3.36932 42.6737 3.51136 43.1793 3.79545C43.685 4.0767 44.0728 4.47159 44.3427 4.98011C44.6126 5.4858 44.7475 6.07386 44.7475 6.74432C44.7475 7.41477 44.6126 8.00426 44.3427 8.51278C44.0728 9.01847 43.685 9.41335 43.1793 9.69744C42.6737 9.97869 42.0657 10.1193 41.3555 10.1193ZM41.3725 8.38068C41.5714 8.38068 41.7433 8.31392 41.8881 8.1804C42.033 8.04687 42.1452 7.85653 42.2248 7.60938C42.3043 7.36222 42.3441 7.06818 42.3441 6.72727C42.3441 6.38352 42.3043 6.08949 42.2248 5.84517C42.1452 5.59801 42.033 5.40767 41.8881 5.27415C41.7433 5.14062 41.5714 5.07386 41.3725 5.07386C41.1623 5.07386 40.9819 5.14062 40.8313 5.27415C40.6808 5.40767 40.5657 5.59801 40.4862 5.84517C40.4066 6.08949 40.3668 6.38352 40.3668 6.72727C40.3668 7.06818 40.4066 7.36222 40.4862 7.60938C40.5657 7.85653 40.6808 8.04687 40.8313 8.1804C40.9819 8.31392 41.1623 8.38068 41.3725 8.38068ZM45.7021 10V3.45455H48.0543V10H45.7021ZM46.8782 2.77273C46.56 2.77273 46.2873 2.66761 46.06 2.45739C45.8327 2.24716 45.7191 1.99432 45.7191 1.69886C45.7191 1.40341 45.8327 1.15057 46.06 0.940341C46.2873 0.730114 46.56 0.625 46.8782 0.625C47.1992 0.625 47.4719 0.730114 47.6964 0.940341C47.9237 1.15057 48.0373 1.40341 48.0373 1.69886C48.0373 1.99432 47.9237 2.24716 47.6964 2.45739C47.4719 2.66761 47.1992 2.77273 46.8782 2.77273ZM52.4062 10.1193C51.696 10.1193 51.0881 9.97869 50.5824 9.69744C50.0767 9.41335 49.6889 9.01847 49.419 8.51278C49.1491 8.00426 49.0142 7.41477 49.0142 6.74432C49.0142 6.07386 49.1491 5.4858 49.419 4.98011C49.6889 4.47159 50.0767 4.0767 50.5824 3.79545C51.0881 3.51136 51.696 3.36932 52.4062 3.36932C53.0483 3.36932 53.6037 3.4858 54.0724 3.71875C54.544 3.94886 54.9091 4.27557 55.1676 4.69886C55.4261 5.11932 55.5568 5.61364 55.5597 6.18182H53.3778C53.3466 5.83807 53.2472 5.5767 53.0795 5.39773C52.9148 5.21591 52.7017 5.125 52.4403 5.125C52.2358 5.125 52.0568 5.18466 51.9034 5.30398C51.75 5.42045 51.6307 5.59801 51.5455 5.83665C51.4602 6.07244 51.4176 6.36932 51.4176 6.72727C51.4176 7.08523 51.4602 7.38352 51.5455 7.62216C51.6307 7.85795 51.75 8.03551 51.9034 8.15483C52.0568 8.27131 52.2358 8.32955 52.4403 8.32955C52.6136 8.32955 52.767 8.28977 52.9006 8.21023C53.0341 8.12784 53.142 8.00852 53.2244 7.85227C53.3097 7.69318 53.3608 7.5 53.3778 7.27273H55.5597C55.5511 7.84943 55.419 8.35227 55.1634 8.78125C54.9077 9.20739 54.5455 9.53693 54.0767 9.76989C53.6108 10.0028 53.054 10.1193 52.4062 10.1193ZM59.6665 10.1193C58.9677 10.1193 58.3654 9.9858 57.8597 9.71875C57.3569 9.44886 56.9691 9.0625 56.6964 8.55966C56.4265 8.05398 56.2915 7.44886 56.2915 6.74432C56.2915 6.06818 56.4279 5.47727 56.7006 4.97159C56.9734 4.46591 57.3583 4.07244 57.8555 3.79119C58.3526 3.50994 58.9393 3.36932 59.6154 3.36932C60.1097 3.36932 60.5572 3.44602 60.9577 3.59943C61.3583 3.75284 61.7006 3.97585 61.9847 4.26847C62.2688 4.55824 62.4876 4.91051 62.641 5.32528C62.7944 5.74006 62.8711 6.20739 62.8711 6.72727V7.27273H57.0245V5.97727H60.7063C60.7035 5.78977 60.6552 5.625 60.5614 5.48295C60.4705 5.33807 60.3469 5.22585 60.1907 5.14631C60.0373 5.06392 59.8626 5.02273 59.6665 5.02273C59.4762 5.02273 59.3015 5.06392 59.1424 5.14631C58.9833 5.22585 58.8555 5.33665 58.7589 5.47869C58.6651 5.62074 58.6154 5.78693 58.6097 5.97727V7.375C58.6097 7.58523 58.6538 7.77273 58.7418 7.9375C58.8299 8.10227 58.9563 8.23153 59.1211 8.32528C59.2859 8.41903 59.4847 8.46591 59.7177 8.46591C59.8796 8.46591 60.0273 8.44318 60.1609 8.39773C60.2972 8.35227 60.4137 8.28693 60.5103 8.2017C60.6069 8.11364 60.6779 8.00852 60.7234 7.88636H62.8711C62.7972 8.34091 62.6225 8.7358 62.3469 9.07102C62.0714 9.40341 61.7063 9.66193 61.2518 9.84659C60.8001 10.0284 60.2717 10.1193 59.6665 10.1193Z" fill="#2288FF"/>
</svg>
