<svg width="520" height="81" viewBox="0 0 520 81" fill="none" xmlns="http://www.w3.org/2000/svg">
<path d="M0.971591 79V24.4545H19.5795V34.8239H20.1477C21.2841 31.4148 23.2254 28.7159 25.9716 26.7273C28.7178 24.7386 31.9848 23.7443 35.7727 23.7443C39.608 23.7443 42.9105 24.7623 45.6804 26.7983C48.4503 28.8106 50.1193 31.4858 50.6875 34.8239H51.2557C52.179 31.4858 54.1439 28.8106 57.1506 26.7983C60.1572 24.7623 63.6847 23.7443 67.733 23.7443C72.965 23.7443 77.2027 25.4252 80.446 28.7869C83.7131 32.1487 85.3466 36.6231 85.3466 42.2102V79H65.7443V47.1818C65.7443 44.7907 65.1406 42.9205 63.9332 41.571C62.7259 40.1979 61.1042 39.5114 59.0682 39.5114C57.0559 39.5114 55.4579 40.1979 54.2741 41.571C53.1141 42.9205 52.5341 44.7907 52.5341 47.1818V79H33.7841V47.1818C33.7841 44.7907 33.1804 42.9205 31.973 41.571C30.7656 40.1979 29.1439 39.5114 27.108 39.5114C25.7585 39.5114 24.5985 39.8191 23.6278 40.4347C22.6572 41.0502 21.8996 41.938 21.3551 43.098C20.8343 44.2344 20.5739 45.5956 20.5739 47.1818V79H0.971591ZM121.151 79.9943C115.327 79.9943 110.308 78.8816 106.094 76.6562C101.904 74.4072 98.6722 71.1875 96.3995 66.9972C94.1504 62.7831 93.0259 57.7405 93.0259 51.8693C93.0259 46.2348 94.1623 41.3106 96.435 37.0966C98.7077 32.8826 101.916 29.6037 106.059 27.2599C110.202 24.9162 115.09 23.7443 120.725 23.7443C124.844 23.7443 128.573 24.3835 131.911 25.6619C135.249 26.9403 138.102 28.7988 140.469 31.2372C142.837 33.652 144.659 36.5876 145.938 40.044C147.216 43.5005 147.855 47.3949 147.855 51.7273V56.2727H99.1339V45.4773H129.816C129.792 43.9148 129.39 42.5417 128.608 41.358C127.851 40.1506 126.821 39.2154 125.519 38.5526C124.24 37.866 122.784 37.5227 121.151 37.5227C119.565 37.5227 118.109 37.866 116.783 38.5526C115.457 39.2154 114.392 40.1387 113.587 41.3224C112.806 42.5062 112.391 43.8911 112.344 45.4773V57.125C112.344 58.8769 112.711 60.4394 113.445 61.8125C114.179 63.1856 115.232 64.2628 116.605 65.044C117.979 65.8253 119.636 66.2159 121.577 66.2159C122.926 66.2159 124.158 66.0265 125.27 65.6477C126.407 65.2689 127.377 64.7244 128.182 64.0142C128.987 63.2803 129.579 62.4044 129.958 61.3864H147.855C147.24 65.1742 145.784 68.465 143.488 71.2585C141.191 74.0284 138.149 76.1828 134.361 77.7216C130.597 79.2367 126.194 79.9943 121.151 79.9943ZM188.383 24.4545V38.6591H152.445V24.4545H188.383ZM159.406 11.3864H179.008V61.4574C179.008 62.215 179.138 62.8542 179.398 63.375C179.659 63.8722 180.061 64.2509 180.606 64.5114C181.15 64.7481 181.849 64.8665 182.701 64.8665C183.293 64.8665 183.979 64.7955 184.761 64.6534C185.566 64.5114 186.157 64.393 186.536 64.2983L189.377 78.0767C188.501 78.3371 187.246 78.6567 185.613 79.0355C184.003 79.4143 182.085 79.6629 179.86 79.7812C175.362 80.018 171.586 79.5563 168.532 78.3963C165.478 77.2126 163.182 75.3542 161.643 72.821C160.104 70.2879 159.358 67.1155 159.406 63.304V11.3864ZM211.581 79.8523C208.1 79.8523 205.023 79.2841 202.348 78.1477C199.696 76.9877 197.613 75.2358 196.098 72.892C194.583 70.5483 193.825 67.5653 193.825 63.9432C193.825 60.9602 194.334 58.4152 195.352 56.3082C196.37 54.1776 197.79 52.4375 199.613 51.0881C201.436 49.7386 203.555 48.7088 205.97 47.9986C208.408 47.2884 211.036 46.8267 213.853 46.6136C216.907 46.3769 219.358 46.0928 221.204 45.7614C223.074 45.4062 224.424 44.9209 225.252 44.3054C226.081 43.6662 226.495 42.8258 226.495 41.7841V41.642C226.495 40.2216 225.951 39.1326 224.862 38.375C223.773 37.6174 222.376 37.2386 220.672 37.2386C218.801 37.2386 217.274 37.6529 216.091 38.4815C214.931 39.2865 214.232 40.5294 213.995 42.2102H195.956C196.192 38.8958 197.246 35.8419 199.116 33.0483C201.01 30.2311 203.768 27.982 207.39 26.3011C211.012 24.5966 215.534 23.7443 220.956 23.7443C224.862 23.7443 228.366 24.206 231.467 25.1293C234.568 26.0289 237.208 27.2955 239.386 28.929C241.564 30.5388 243.221 32.4328 244.358 34.6108C245.518 36.7652 246.098 39.1089 246.098 41.642V79H227.774V71.3295H227.348C226.259 73.3655 224.933 75.0109 223.37 76.2656C221.832 77.5204 220.068 78.4318 218.079 79C216.114 79.5682 213.948 79.8523 211.581 79.8523ZM217.973 67.4943C219.464 67.4943 220.861 67.1866 222.163 66.571C223.489 65.9555 224.566 65.0677 225.395 63.9077C226.223 62.7476 226.637 61.339 226.637 59.6818V55.1364C226.117 55.3494 225.56 55.5507 224.968 55.7401C224.4 55.9295 223.785 56.107 223.122 56.2727C222.483 56.4384 221.796 56.5923 221.062 56.7344C220.352 56.8764 219.606 57.0066 218.825 57.125C217.31 57.3617 216.067 57.7524 215.096 58.2969C214.149 58.8177 213.439 59.4688 212.966 60.25C212.516 61.0076 212.291 61.8598 212.291 62.8068C212.291 64.322 212.824 65.482 213.889 66.2869C214.954 67.0919 216.315 67.4943 217.973 67.4943Z" fill="#0C1F63"/>
<path d="M310.435 24.4545L292.112 79H269.384L251.06 24.4545H271.657L280.464 60.5341H281.032L289.839 24.4545H310.435ZM340.629 79.9943C334.71 79.9943 329.644 78.8224 325.43 76.4787C321.216 74.1113 317.984 70.8205 315.735 66.6065C313.486 62.3688 312.362 57.4564 312.362 51.8693C312.362 46.2822 313.486 41.3816 315.735 37.1676C317.984 32.9299 321.216 29.6392 325.43 27.2955C329.644 24.928 334.71 23.7443 340.629 23.7443C346.547 23.7443 351.614 24.928 355.828 27.2955C360.042 29.6392 363.273 32.9299 365.522 37.1676C367.771 41.3816 368.896 46.2822 368.896 51.8693C368.896 57.4564 367.771 62.3688 365.522 66.6065C363.273 70.8205 360.042 74.1113 355.828 76.4787C351.614 78.8224 346.547 79.9943 340.629 79.9943ZM340.771 65.5057C342.428 65.5057 343.86 64.9493 345.068 63.8366C346.275 62.724 347.21 61.1378 347.873 59.0781C348.536 57.0185 348.868 54.5682 348.868 51.7273C348.868 48.8627 348.536 46.4124 347.873 44.3764C347.21 42.3168 346.275 40.7306 345.068 39.6179C343.86 38.5052 342.428 37.9489 340.771 37.9489C339.019 37.9489 337.516 38.5052 336.261 39.6179C335.006 40.7306 334.047 42.3168 333.385 44.3764C332.722 46.4124 332.39 48.8627 332.39 51.7273C332.39 54.5682 332.722 57.0185 333.385 59.0781C334.047 61.1378 335.006 62.724 336.261 63.8366C337.516 64.9493 339.019 65.5057 340.771 65.5057ZM376.85 79V24.4545H396.453V79H376.85ZM386.652 18.7727C384 18.7727 381.727 17.8968 379.833 16.1449C377.94 14.393 376.993 12.286 376.993 9.82386C376.993 7.36174 377.94 5.25473 379.833 3.50284C381.727 1.75095 384 0.875 386.652 0.875C389.327 0.875 391.6 1.75095 393.47 3.50284C395.364 5.25473 396.311 7.36174 396.311 9.82386C396.311 12.286 395.364 14.393 393.47 16.1449C391.6 17.8968 389.327 18.7727 386.652 18.7727ZM432.719 79.9943C426.8 79.9943 421.734 78.8224 417.52 76.4787C413.306 74.1113 410.074 70.8205 407.825 66.6065C405.576 62.3688 404.452 57.4564 404.452 51.8693C404.452 46.2822 405.576 41.3816 407.825 37.1676C410.074 32.9299 413.306 29.6392 417.52 27.2955C421.734 24.928 426.8 23.7443 432.719 23.7443C438.069 23.7443 442.697 24.715 446.604 26.6562C450.534 28.5739 453.576 31.2964 455.73 34.8239C457.884 38.3277 458.973 42.447 458.997 47.1818H440.815C440.555 44.3172 439.726 42.1392 438.33 40.6477C436.956 39.1326 435.181 38.375 433.003 38.375C431.298 38.375 429.807 38.8722 428.528 39.8665C427.25 40.8371 426.256 42.3168 425.545 44.3054C424.835 46.2704 424.48 48.7443 424.48 51.7273C424.48 54.7102 424.835 57.196 425.545 59.1847C426.256 61.1496 427.25 62.6293 428.528 63.6236C429.807 64.5942 431.298 65.0795 433.003 65.0795C434.447 65.0795 435.725 64.7481 436.838 64.0852C437.951 63.3987 438.85 62.4044 439.537 61.1023C440.247 59.7765 440.673 58.1667 440.815 56.2727H458.997C458.926 61.0786 457.825 65.2689 455.695 68.8438C453.564 72.3949 450.545 75.1411 446.639 77.0824C442.757 79.0237 438.116 79.9943 432.719 79.9943ZM493.221 79.9943C487.397 79.9943 482.378 78.8816 478.164 76.6562C473.974 74.4072 470.743 71.1875 468.47 66.9972C466.221 62.7831 465.096 57.7405 465.096 51.8693C465.096 46.2348 466.233 41.3106 468.505 37.0966C470.778 32.8826 473.986 29.6037 478.129 27.2599C482.272 24.9162 487.161 23.7443 492.795 23.7443C496.914 23.7443 500.643 24.3835 503.981 25.6619C507.319 26.9403 510.172 28.7988 512.539 31.2372C514.907 33.652 516.73 36.5876 518.008 40.044C519.287 43.5005 519.926 47.3949 519.926 51.7273V56.2727H471.204V45.4773H501.886C501.862 43.9148 501.46 42.5417 500.679 41.358C499.921 40.1506 498.891 39.2154 497.589 38.5526C496.311 37.866 494.855 37.5227 493.221 37.5227C491.635 37.5227 490.179 37.866 488.853 38.5526C487.528 39.2154 486.462 40.1387 485.657 41.3224C484.876 42.5062 484.462 43.8911 484.414 45.4773V57.125C484.414 58.8769 484.781 60.4394 485.515 61.8125C486.249 63.1856 487.303 64.2628 488.676 65.044C490.049 65.8253 491.706 66.2159 493.647 66.2159C494.997 66.2159 496.228 66.0265 497.341 65.6477C498.477 65.2689 499.448 64.7244 500.252 64.0142C501.057 63.2803 501.649 62.4044 502.028 61.3864H519.926C519.31 65.1742 517.854 68.465 515.558 71.2585C513.261 74.0284 510.219 76.1828 506.431 77.7216C502.667 79.2367 498.264 79.9943 493.221 79.9943Z" fill="#2288FF"/>
</svg>
